<svg xmlns="http://www.w3.org/2000/svg" width="24" height="24" fill="none" viewBox="0 0 24 24"><g id="Icons / get-involved"><g id="line"><path id="Path 41" stroke="#000" stroke-linecap="round" stroke-width="2" d="M18 16C18 16 20 17.5 21 21"/><path id="Path 40" stroke="#000" stroke-linecap="round" stroke-width="2" d="M16 11C16 11 19 10 19 7C19 4 16 3 16 3"/><path id="Path 39" stroke="#000" stroke-linecap="round" stroke-width="2" d="M2 21C2 21 3.5 15 9 15C14.5 15 16 21 16 21"/><path id="Oval" fill-rule="evenodd" stroke="#000" stroke-width="2" d="M9 11C11.2091 11 13 9.20914 13 7C13 4.79086 11.2091 3 9 3C6.79086 3 5 4.79086 5 7C5 9.20914 6.79086 11 9 11Z" clip-rule="evenodd"/></g></g></svg>